<svg xmlns="http://www.w3.org/2000/svg" width="32" height="32" viewBox="0 0 32 32"><path d="M25,15 26,15 26,16 25,16 M23,15 24,15 24,16 23,16 M21,15 22,15 22,16 21,16 M19,14 20,14 20,15 19,15 M19,13 20,13 20,14 19,14 M19,12 20,12 20,13 19,13 M19,11 20,11 20,12 19,12 M19,9 20,9 20,10 19,10 M19,10 20,10 20,11 19,11 M20,10 21,10 21,11 20,11 M20,11 21,11 21,12 20,12 M21,11 22,11 22,12 21,12 M21,12 22,12 22,13 21,13 M22,12 23,12 23,13 22,13 M22,13 23,13 23,14 22,14 M23,13 24,13 24,14 23,14 M23,14 24,14 24,15 23,15 M24,14 25,14 25,15 24,15 M24,15 25,15 25,16 24,16 M24,16 25,16 25,17 24,17 M23,16 24,16 24,17 23,17 M23,17 24,17 24,18 23,18 M22,18 23,18 23,19 22,19 M21,18 22,18 22,19 21,19 M21,19 22,19 22,20 21,20 M20,19 21,19 21,20 20,20 M20,20 21,20 21,21 20,21 M19,21 20,21 20,22 19,22 M19,20 20,20 20,21 19,21 M19,19 20,19 20,20 19,20 M19,18 20,18 20,19 19,19 M19,17 20,17 20,18 19,18 M20,15 21,15 21,16 20,16 M20,14 21,14 21,15 20,15 M21,14 22,14 22,15 21,15 M20,12 21,12 21,13 20,13 M20,13 21,13 21,14 20,14 M21,13 22,13 22,14 21,14 M22,14 23,14 23,15 22,15 M22,15 23,15 23,16 22,16 M22,16 23,16 23,17 22,17 M22,17 23,17 23,18 22,18 M21,17 22,17 22,18 21,18 M21,16 22,16 22,17 21,17 M20,18 21,18 21,19 20,19 M20,17 21,17 21,18 20,18 M20,16 21,16 21,17 20,17 M17,15 18,15 18,16 17,16 M16,15 17,15 17,16 16,16 M15,15 16,15 16,16 15,16 M14,15 15,15 15,16 14,16 M13,15 14,15 14,16 13,16 M12,15 13,15 13,16 12,16 M11,15 12,15 12,16 11,16 M10,15 11,15 11,16 10,16 M9,15 10,15 10,16 9,16 M10,16 11,16 11,17 10,17 M11,16 12,16 12,17 11,17 M12,16 13,16 13,17 12,17 M13,16 14,16 14,17 13,17 M14,16 15,16 15,17 14,17 M15,16 16,16 16,17 15,17 M16,16 17,16 17,17 16,17 M17,16 18,16 18,17 17,17 M18,16 19,16 19,17 18,17 M19,16 20,16 20,17 19,17 M19,15 20,15 20,16 19,16 M18,15 19,15 19,16 18,16 M18,14 19,14 19,15 18,15 M17,14 18,14 18,15 17,15 M16,14 17,14 17,15 16,15 M15,14 16,14 16,15 15,15 M14,14 15,14 15,15 14,15 M13,14 14,14 14,15 13,15 M12,14 13,14 13,15 12,15 M11,14 12,14 12,15 11,15 M10,14 11,14 11,15 10,15 M9,14 10,14 10,15 9,15 M8,14 9,14 9,15 8,15 M7,15 8,15 8,16 7,16 M7,16 8,16 8,17 7,17 M9,16 10,16 10,17 9,17 M8,16 9,16 9,17 8,17 M8,15 9,15 9,16 8,16 M7,14 8,14 8,15 7,15 M6,14 7,14 7,15 6,15 M5,14 6,14 6,15 5,15 M5,16 6,16 6,17 5,17 M6,16 7,16 7,17 6,17 M6,15 7,15 7,16 6,16 M5,15 6,15 6,16 5,16 " fill="#868188"></path></svg>